# xmcd CD database file
#
# Track frame offsets:
#	150
#	10925
#	44342
#	82647
#	108229
#	143280
#	168797
#	179482
#	192690
#	208707
#	224017
#	249859
#
# Disc length: 3562 seconds
#
# Revision: 0
# Processed by: cddbd v1.5.1PL0 Copyright (c) Steve Scherf et al.
# Submitted via: CDex 1.51
#
DISCID=9b0de80c
DTITLE=Miami Saxophone Quartet - Take Foru Giant Steps
DYEAR=2002
DGENRE=Jazz
TTITLE0=Childhood Memories: Tag
TTITLE1=Giant Steps
TTITLE2=Waltz For Joshua
TTITLE3=Thank You
TTITLE4=Saxophone Quartet #1
TTITLE5=Childhood Memories: Romance
TTITLE6=Intoxicated Rag
TTITLE7=Quartet #1 in Three Movements: Allegretto
TTITLE8=Quartet #1 in Three Movements: Slowly
TTITLE9=Quartet #1 in Three Movements: Allegro
TTITLE10=Childhood Memories: Hide And Seek
TTITLE11=America The Beautiful
EXTD=YEAR: 2002
EXTT0=
EXTT1=
EXTT2=
EXTT3=
EXTT4=
EXTT5=
EXTT6=
EXTT7=
EXTT8=
EXTT9=
EXTT10=
EXTT11=
PLAYORDER=
